<?xml version="1.0" encoding="utf-8"?>
<!-- Generator: Adobe Illustrator 24.0.1, SVG Export Plug-In . SVG Version: 6.00 Build 0)  -->
<svg version="1.1" id="图层_1" xmlns="http://www.w3.org/2000/svg" xmlns:xlink="http://www.w3.org/1999/xlink" x="0px" y="0px"
	 viewBox="0 0 16 16" style="enable-background:new 0 0 16 16;" xml:space="preserve">
<style type="text/css">
	.st0{filter:url(#Adobe_OpacityMaskFilter);}
	.st1{fill-rule:evenodd;clip-rule:evenodd;fill:#FFFFFF;}
	.st2{mask:url(#mask-2_1_);fill-rule:evenodd;clip-rule:evenodd;fill:#FFFFFF;}
</style>
<g id="页面-1">
	<g id="权限系统备份">
		<g id="蒙版">
		</g>
		<defs>
			<filter id="Adobe_OpacityMaskFilter" filterUnits="userSpaceOnUse" x="3" y="2" width="10" height="13">
				<feColorMatrix  type="matrix" values="1 0 0 0 0  0 1 0 0 0  0 0 1 0 0  0 0 0 1 0"/>
			</filter>
		</defs>
		<mask maskUnits="userSpaceOnUse" x="3" y="2" width="10" height="13" id="mask-2_1_">
			<g class="st0">
				<rect id="path-1_1_" class="st1" width="16" height="16"/>
			</g>
		</mask>
		<path id="Shield" class="st2" d="M7.7,14.9L7,14.3c-2.5-1.9-4-4.9-4-8V4.9c0-0.4,0.3-0.8,0.7-1L7.8,2C7.9,2,8.1,2,8.2,2l4.1,1.8
			C12.7,4,13,4.4,13,4.9v1.4c0,3.1-1.5,6.1-4,8l-0.7,0.5C8.1,15,7.9,15,7.7,14.9L7.7,14.9z"/>
	</g>
</g>
</svg>
