<?xml version="1.0" encoding="utf-8"?>
<!-- Generator: Adobe Illustrator 24.0.1, SVG Export Plug-In . SVG Version: 6.00 Build 0)  -->
<svg version="1.1" id="图层_1" xmlns="http://www.w3.org/2000/svg" xmlns:xlink="http://www.w3.org/1999/xlink" x="0px" y="0px"
	 viewBox="0 0 16 16" style="enable-background:new 0 0 16 16;" xml:space="preserve">
<style type="text/css">
	.st0{filter:url(#Adobe_OpacityMaskFilter);}
	.st1{fill-rule:evenodd;clip-rule:evenodd;fill:#FFFFFF;}
	.st2{mask:url(#mask-2_1_);fill-rule:evenodd;clip-rule:evenodd;fill:#FFFFFF;}
</style>
<g id="页面-1">
	<g id="数据管理备份">
		<g id="蒙版">
		</g>
		<defs>
			<filter id="Adobe_OpacityMaskFilter" filterUnits="userSpaceOnUse" x="2" y="2" width="12" height="12">
				<feColorMatrix  type="matrix" values="1 0 0 0 0  0 1 0 0 0  0 0 1 0 0  0 0 0 1 0"/>
			</filter>
		</defs>
		<mask maskUnits="userSpaceOnUse" x="2" y="2" width="12" height="12" id="mask-2_1_">
			<g class="st0">
				<rect id="path-1_1_" class="st1" width="16" height="16"/>
			</g>
		</mask>
		<path id="Infographic-3" class="st2" d="M8,14c-3.1,0-5.7-2.4-6-5.4S3.8,2.6,6.8,2c0.4-0.1,0.7,0.2,0.8,0.5
			c0.1,0.4-0.2,0.7-0.5,0.8C4.8,3.8,3.2,5.9,3.4,8.3c0.2,2.3,2,4.2,4.3,4.3c2.3,0.2,4.4-1.4,4.9-3.7c0.1-0.4,0.4-0.6,0.8-0.5
			c0.4,0.1,0.6,0.4,0.5,0.8C13.4,12,10.9,14,8,14z M9,2.5v4C9,6.8,9.2,7,9.5,7h4c0.1,0,0.3-0.1,0.4-0.2C14,6.7,14,6.6,14,6.4
			C13.7,4.1,11.9,2.3,9.6,2C9.4,2,9.3,2,9.2,2.1S9,2.4,9,2.5L9,2.5z"/>
	</g>
</g>
</svg>
