<?xml version="1.0" encoding="utf-8"?>
<!-- Generator: Adobe Illustrator 24.0.1, SVG Export Plug-In . SVG Version: 6.00 Build 0)  -->
<svg version="1.1" id="图层_1" xmlns="http://www.w3.org/2000/svg" xmlns:xlink="http://www.w3.org/1999/xlink" x="0px" y="0px"
	 viewBox="0 0 16 16" style="enable-background:new 0 0 16 16;" xml:space="preserve">
<style type="text/css">
	.st0{filter:url(#Adobe_OpacityMaskFilter);}
	.st1{fill-rule:evenodd;clip-rule:evenodd;fill:#FFFFFF;}
	.st2{mask:url(#mask-2_1_);fill-rule:evenodd;clip-rule:evenodd;fill:#FFFFFF;}
</style>
<g id="页面-1">
	<g id="图像标注备份">
		<g id="蒙版">
		</g>
		<defs>
			<filter id="Adobe_OpacityMaskFilter" filterUnits="userSpaceOnUse" x="3" y="4" width="12" height="8">
				<feColorMatrix  type="matrix" values="1 0 0 0 0  0 1 0 0 0  0 0 1 0 0  0 0 0 1 0"/>
			</filter>
		</defs>
		<mask maskUnits="userSpaceOnUse" x="3" y="4" width="12" height="8" id="mask-2_1_">
			<g class="st0">
				<rect id="path-1_1_" class="st1" width="16" height="16"/>
			</g>
		</mask>
		<path id="Image" class="st2" d="M3,5v3.5c0,0.1,0.1,0.2,0.1,0.2c0.1,0,0.2,0,0.3,0l2.3-1.8c0.2-0.1,0.5-0.1,0.6,0l2.1,1.6l1.2-1.1
			c0.2-0.2,0.5-0.2,0.7,0l2.5,1.9C13,9.4,13,9.7,12.9,9.9s-0.5,0.2-0.7,0.1L10,8.4L8.9,9.5c-0.2,0.2-0.5,0.2-0.7,0L6,7.9l-2.5,2
			C3.2,10.2,3,10.6,3,11l0,0c0,0.6,0.5,1,1.1,1h9.8c0.6,0,1.1-0.5,1.1-1V5c0-0.6-0.5-1-1.1-1H4.1C3.8,4,3.5,4.1,3.3,4.3
			C3.1,4.5,3,4.8,3,5z M13,7c-0.6,0-1-0.4-1-1s0.4-1,1-1s1,0.4,1,1c0,0.3-0.1,0.5-0.3,0.7C13.5,6.9,13.3,7,13,7L13,7z"/>
	</g>
</g>
</svg>
