<?xml version="1.0" encoding="utf-8"?>
<!-- Generator: Adobe Illustrator 24.0.1, SVG Export Plug-In . SVG Version: 6.00 Build 0)  -->
<svg version="1.1" id="图层_1" xmlns="http://www.w3.org/2000/svg" xmlns:xlink="http://www.w3.org/1999/xlink" x="0px" y="0px"
	 viewBox="0 0 16 16" style="enable-background:new 0 0 16 16;" xml:space="preserve">
<style type="text/css">
	.st0{filter:url(#Adobe_OpacityMaskFilter);}
	.st1{fill-rule:evenodd;clip-rule:evenodd;fill:#FFFFFF;}
	.st2{mask:url(#mask-2_1_);fill-rule:evenodd;clip-rule:evenodd;fill:#FFFFFF;}
</style>
<g id="页面-1">
	<g id="系统设置备份">
		<g id="蒙版">
		</g>
		<defs>
			<filter id="Adobe_OpacityMaskFilter" filterUnits="userSpaceOnUse" x="3" y="2" width="11" height="12">
				<feColorMatrix  type="matrix" values="1 0 0 0 0  0 1 0 0 0  0 0 1 0 0  0 0 0 1 0"/>
			</filter>
		</defs>
		<mask maskUnits="userSpaceOnUse" x="3" y="2" width="11" height="12" id="mask-2_1_">
			<g class="st0">
				<rect id="path-1_1_" class="st1" width="16" height="16"/>
			</g>
		</mask>
		<path id="Search_settings" class="st2" d="M13.7,9.5l-0.4-0.4C13.1,8.9,13,8.6,13,8.3c0-0.3,0-0.5,0-0.8c0-0.3,0.1-0.6,0.3-0.8
			l0.4-0.4C14,6,14.1,5.5,13.9,5.2l-0.2-0.4c-0.2-0.4-0.7-0.6-1.1-0.5l-0.6,0.1c-0.3,0.1-0.6,0-0.8-0.2c-0.1-0.1-0.2-0.1-0.3-0.2
			C10.6,4,10.5,4,10.4,3.9c-0.3-0.1-0.5-0.4-0.6-0.6L9.7,2.7C9.6,2.3,9.2,2,8.7,2H8.2C7.8,2,7.4,2.3,7.3,2.7L7.1,3.3
			C7,3.6,6.8,3.8,6.6,3.9C6.3,4,6.1,4.2,5.9,4.3C5.6,4.5,5.3,4.6,5.1,4.5L4.5,4.4C4,4.3,3.6,4.5,3.4,4.9L3.1,5.3
			C2.9,5.7,3,6.2,3.3,6.5l0.4,0.4C3.9,7.1,4,7.4,4,7.7c0,0.3,0,0.5,0,0.8C4,8.8,3.9,9,3.7,9.2L3.3,9.6C3,10,2.9,10.4,3.1,10.8
			l0.2,0.4c0.2,0.4,0.7,0.6,1.1,0.5l0.6-0.1c0.3-0.1,0.6,0,0.8,0.2c0.1,0.1,0.2,0.1,0.3,0.2C6.4,12,6.5,12,6.6,12.1
			c0.3,0.1,0.5,0.4,0.6,0.6l0.2,0.5c0.1,0.4,0.5,0.7,1,0.7h0.5c0.4,0,0.8-0.3,0.9-0.7l0.2-0.6c0.1-0.3,0.3-0.5,0.5-0.6
			c0.2-0.1,0.5-0.3,0.7-0.4c0.2-0.2,0.5-0.2,0.8-0.2l0.6,0.1c0.4,0.1,0.9-0.1,1.1-0.5l0.3-0.4C14.1,10.3,14,9.8,13.7,9.5L13.7,9.5z"
			/>
	</g>
</g>
</svg>
