<?xml version="1.0" encoding="utf-8"?>
<!-- Generator: Adobe Illustrator 24.0.1, SVG Export Plug-In . SVG Version: 6.00 Build 0)  -->
<svg version="1.1" id="图层_1" xmlns="http://www.w3.org/2000/svg" xmlns:xlink="http://www.w3.org/1999/xlink" x="0px" y="0px"
	 viewBox="0 0 16 16" style="enable-background:new 0 0 16 16;" xml:space="preserve">
<style type="text/css">
	.st0{filter:url(#Adobe_OpacityMaskFilter);}
	.st1{fill-rule:evenodd;clip-rule:evenodd;fill:#FFFFFF;}
	.st2{mask:url(#mask-2_1_);fill-rule:evenodd;clip-rule:evenodd;fill:#FFFFFF;}
</style>
<g id="页面-1">
	<g id="任务管理备份">
		<g id="蒙版">
		</g>
		<defs>
			<filter id="Adobe_OpacityMaskFilter" filterUnits="userSpaceOnUse" x="2" y="3" width="12" height="9">
				<feColorMatrix  type="matrix" values="1 0 0 0 0  0 1 0 0 0  0 0 1 0 0  0 0 0 1 0"/>
			</filter>
		</defs>
		<mask maskUnits="userSpaceOnUse" x="2" y="3" width="12" height="9" id="mask-2_1_">
			<g class="st0">
				<rect id="path-1_1_" class="st1" width="16" height="16"/>
			</g>
		</mask>
		<path id="Reporting-2" class="st2" d="M12.5,4.4H7.9c-0.3,0-0.5-0.1-0.7-0.3L6.3,3.3C6.1,3.1,5.9,3,5.6,3H3C2.4,3,2,3.4,2,3.9v6.6
			C2,11.4,2.7,12,3.5,12h9c0.8,0,1.5-0.6,1.5-1.4V5.8C14,5.1,13.3,4.4,12.5,4.4L12.5,4.4z M10.9,7L8.3,9.8C8.2,9.9,8.1,10,7.9,10h0
			C7.7,10,7.5,10,7.4,9.9L6.2,8.7C5.9,8.5,6,8.2,6.2,7.9s0.6-0.2,0.9,0l0.8,0.7l2.1-2.4C10,6.1,10.2,6,10.5,6s0.4,0.2,0.5,0.4
			S11,6.8,10.9,7L10.9,7z"/>
	</g>
</g>
</svg>
